<?xml version="1.0" standalone="no"?>
<!DOCTYPE svg PUBLIC "-//W3C//DTD SVG 20010904//EN"
 "http://www.w3.org/TR/2001/REC-SVG-20010904/DTD/svg10.dtd">
<svg version="1.0" xmlns="http://www.w3.org/2000/svg"
 width="512.000000pt" height="512.000000pt" viewBox="0 0 512.000000 512.000000"
 preserveAspectRatio="xMidYMid meet">

<g transform="translate(0.000000,512.000000) scale(0.100000,-0.100000)"
fill="#000000" stroke="none">
<path d="M0 2560 l0 -2560 2560 0 2560 0 0 2560 0 2560 -2560 0 -2560 0 0
-2560z m2550 2405 c0 -8 4 -15 8 -17 5 -1 25 -25 45 -51 20 -26 43 -55 52 -63
8 -9 15 -21 15 -28 0 -7 12 -26 28 -44 15 -17 43 -52 62 -77 19 -25 55 -72 80
-103 57 -71 100 -135 100 -148 0 -5 9 -15 19 -21 21 -13 159 -195 241 -318 29
-44 71 -102 92 -130 94 -121 283 -377 336 -455 31 -46 94 -134 140 -194 82
-108 96 -133 67 -122 -13 4 -14 2 -5 -14 9 -16 4 -34 -19 -88 -17 -37 -31 -61
-31 -54 0 18 -20 4 -20 -14 0 -8 5 -12 10 -9 6 3 10 2 10 -3 0 -11 -88 -218
-136 -320 -19 -40 -34 -79 -34 -87 0 -8 -5 -15 -11 -15 -6 0 -9 -9 -6 -20 3
-10 -1 -24 -8 -30 -7 -6 -18 -32 -25 -58 -7 -26 -19 -54 -26 -62 -7 -8 -16
-28 -20 -45 -4 -16 -16 -50 -27 -75 -11 -25 -21 -49 -23 -55 -9 -36 -47 -132
-58 -149 -7 -12 -18 -39 -25 -61 -7 -22 -15 -47 -18 -55 -4 -8 -7 -18 -7 -22
-1 -3 -4 -10 -8 -14 -5 -4 -8 -15 -8 -24 0 -9 -11 -40 -25 -68 -14 -29 -25
-55 -25 -59 0 -13 -60 -156 -70 -168 -5 -6 -11 -24 -14 -39 -3 -16 -10 -34
-16 -40 -5 -5 -10 -20 -10 -32 0 -13 -5 -26 -10 -29 -6 -3 -10 -14 -10 -23 0
-9 -6 -29 -14 -43 -7 -15 -23 -55 -35 -89 -12 -35 -29 -77 -38 -94 -9 -17 -18
-37 -19 -44 -1 -8 -13 -37 -27 -65 -13 -29 -32 -77 -41 -107 -10 -30 -24 -69
-32 -87 -8 -17 -14 -34 -14 -38 0 -4 -12 -30 -26 -59 -14 -28 -34 -76 -44
-106 -10 -30 -30 -86 -44 -124 -14 -38 -26 -75 -26 -83 0 -7 -11 -35 -24 -62
-13 -27 -27 -62 -30 -77 -4 -16 -20 -55 -35 -89 -16 -33 -44 -95 -62 -137 -19
-43 -38 -77 -42 -75 -15 5 -109 180 -175 327 -12 25 -32 65 -46 90 -14 25 -48
95 -76 155 -29 61 -103 214 -166 341 -63 127 -114 234 -114 238 0 7 -29 71
-101 223 -22 45 -39 88 -39 95 0 7 -26 65 -57 128 -68 139 -62 126 -117 227
-25 45 -48 93 -52 107 -3 14 -10 26 -16 26 -5 0 -7 4 -3 9 3 5 -2 16 -10 25
-8 8 -24 34 -35 58 -11 24 -30 59 -41 78 -42 68 -159 310 -165 339 -4 16 -14
38 -23 48 -9 10 -23 32 -32 48 -19 34 -116 217 -167 315 -19 36 -38 70 -43 76
-16 20 69 152 123 192 10 7 27 33 38 58 11 24 25 44 30 44 6 0 15 11 20 25 8
21 31 55 137 200 12 16 30 43 39 60 9 16 23 35 30 43 8 7 19 22 25 33 5 11 15
16 21 13 7 -4 8 -3 4 5 -6 9 40 82 65 101 3 3 29 39 57 80 94 137 117 168 150
204 17 19 32 40 32 46 0 5 4 10 9 10 5 0 13 10 17 22 3 12 12 28 18 35 6 8 16
19 21 26 6 7 42 59 80 117 89 134 146 210 156 210 5 0 9 5 9 11 0 7 16 31 35
55 19 23 35 46 35 51 0 5 14 25 31 44 17 19 43 52 57 74 14 22 28 42 31 45 3
3 15 22 25 43 11 20 22 37 26 37 4 0 13 14 20 31 20 47 80 58 80 14z"/>
<path d="M2495 4851 c-16 -29 -128 -192 -254 -366 -64 -88 -123 -170 -131
-181 -8 -12 -40 -55 -70 -96 -30 -41 -59 -81 -65 -90 -5 -9 -28 -41 -50 -72
-22 -32 -44 -65 -50 -75 -5 -9 -28 -38 -49 -64 -62 -76 -36 -64 35 15 35 40
84 93 109 118 25 25 54 59 65 77 11 17 43 56 71 85 28 29 58 67 67 83 9 17 29
44 44 62 15 17 48 57 73 87 25 31 48 56 53 56 4 0 7 7 7 15 0 8 4 15 9 15 5 0
25 24 45 53 20 28 46 64 58 78 25 29 78 47 78 27 0 -6 42 -52 93 -102 50 -50
115 -117 142 -149 28 -32 86 -97 131 -145 45 -48 104 -114 132 -147 95 -113
113 -133 99 -105 -6 14 -29 49 -49 77 -21 28 -38 55 -38 59 0 5 -10 20 -23 34
-13 14 -32 39 -43 55 -10 17 -39 57 -64 90 -25 33 -52 70 -60 81 -8 12 -43 57
-77 100 -35 44 -109 138 -165 211 -57 73 -105 132 -108 132 -3 1 -10 -7 -15
-18z"/>
<path d="M2489 4581 c-26 -35 -182 -226 -193 -236 -7 -5 -70 -77 -140 -160
-137 -160 -300 -346 -328 -377 -10 -10 -18 -21 -18 -24 0 -3 -6 -11 -12 -18
-7 -7 -26 -30 -43 -51 -16 -20 -35 -42 -40 -49 -6 -6 -37 -45 -70 -86 -76 -96
-125 -153 -313 -365 -82 -91 -123 -151 -116 -170 4 -10 29 -55 55 -101 27 -46
58 -107 71 -136 12 -29 31 -69 43 -88 11 -19 26 -46 33 -60 6 -14 23 -43 37
-65 14 -22 28 -47 32 -55 3 -8 17 -33 31 -54 32 -52 67 -115 113 -206 21 -41
55 -102 74 -135 20 -33 52 -91 73 -129 20 -38 42 -76 47 -85 46 -75 93 -158
132 -233 8 -15 19 -30 24 -34 6 -4 5 -11 -2 -20 -10 -12 -10 -14 1 -12 11 2
72 -87 97 -142 4 -8 21 -37 38 -65 18 -27 45 -77 61 -110 15 -33 33 -67 40
-75 6 -8 38 -64 70 -125 32 -60 72 -135 89 -166 16 -31 45 -84 63 -118 18 -33
37 -61 42 -61 10 0 7 147 -6 245 -4 28 -6 59 -6 70 3 53 1 129 -3 135 -3 4
-39 11 -80 15 -87 8 -82 2 -109 125 -10 41 -21 92 -27 112 -5 20 -12 76 -14
125 -3 48 -7 116 -10 150 -4 61 -4 63 23 70 15 5 59 25 98 45 l72 37 6 153 c7
190 3 569 -8 586 -11 17 -48 15 -109 -8 -116 -43 -136 -117 -72 -252 17 -35
17 -40 0 -110 -9 -40 -23 -93 -31 -118 -7 -25 -23 -80 -35 -123 -21 -75 -23
-77 -41 -60 -11 9 -40 49 -66 87 -44 67 -277 312 -317 334 -11 6 -17 14 -13
17 4 4 21 -4 38 -19 17 -14 35 -26 39 -26 15 0 243 -238 280 -293 l39 -57 37
117 c21 65 39 121 42 126 2 4 -1 7 -6 7 -6 0 -11 -7 -11 -15 0 -8 -9 -23 -21
-33 -11 -9 -25 -27 -30 -40 l-9 -23 -25 25 c-14 15 -30 26 -34 26 -5 0 -18 15
-30 33 -11 17 -21 25 -21 17 -1 -16 -12 -4 -120 127 -35 43 -86 100 -112 126
-27 26 -62 72 -78 101 -27 48 -31 64 -36 167 -3 63 -7 134 -8 159 -2 31 7 78
30 149 19 58 34 111 34 118 0 7 9 32 19 56 28 63 31 75 18 81 -9 3 -9 5 1 5 6
1 12 7 12 14 0 7 19 28 43 46 45 36 38 36 -63 -2 -44 -17 -66 -31 -68 -43 -12
-75 -48 -196 -77 -263 -37 -84 -44 -142 -25 -223 27 -121 40 -204 40 -256 -1
-86 -14 -48 -43 123 -45 259 -45 268 -4 355 41 90 63 155 77 235 10 58 28 85
58 85 7 0 67 23 131 50 65 27 123 50 129 50 6 0 24 -18 38 -40 29 -44 29 -57
-7 -137 l-23 -53 20 -27 c32 -42 113 -66 199 -59 66 5 132 21 146 35 15 14 18
60 6 73 -7 7 -40 44 -72 82 -76 90 -89 103 -114 111 -12 4 -22 16 -23 28 -3
53 -8 75 -22 114 -8 22 -20 70 -26 105 l-10 63 53 50 c81 78 97 106 97 176 0
38 4 58 10 54 6 -3 10 -15 10 -25 0 -11 9 -37 20 -58 21 -40 21 -43 -6 -163
-5 -21 5 -41 46 -98 49 -68 68 -87 57 -58 -6 16 25 182 36 193 4 4 7 -8 8 -27
l1 -34 8 28 c5 16 7 34 4 42 -5 11 74 73 128 100 17 9 19 17 13 65 -7 57 -33
94 -70 101 -30 6 -30 29 -1 29 48 0 107 -24 111 -45 23 -110 33 -146 34 -120
1 17 -4 47 -10 68 -14 52 -6 69 15 29 9 -18 21 -30 26 -27 14 9 12 -19 -1 -32
-6 -6 -9 -17 -6 -25 7 -21 28 42 21 65 -4 14 -3 17 6 12 9 -5 11 -4 6 4 -8 12
10 41 24 41 9 0 36 -81 45 -135 3 -22 8 -50 10 -61 3 -14 -7 -36 -26 -60 -30
-38 -30 -40 -23 -109 11 -101 8 -119 -31 -199 -19 -39 -35 -80 -35 -91 0 -11
10 -53 22 -94 l22 -74 -21 -56 c-11 -31 -24 -64 -28 -75 -8 -17 -4 -18 66 -11
41 4 90 15 109 24 58 28 169 92 175 100 7 12 -13 81 -35 121 l-18 35 29 33
c26 29 32 32 46 20 15 -11 16 -11 10 5 -9 24 3 22 70 -16 32 -19 72 -38 88
-44 84 -29 135 -59 146 -86 7 -16 18 -35 25 -42 18 -17 81 -171 93 -227 6 -24
13 -53 17 -63 5 -13 4 -16 -5 -11 -15 10 -32 51 -37 89 -2 16 -10 43 -18 60
-8 18 -29 67 -48 111 l-33 78 -88 40 c-49 22 -91 38 -93 35 -3 -2 25 -33 61
-67 36 -35 65 -67 65 -72 0 -5 -4 -7 -9 -4 -4 3 -6 -7 -3 -22 5 -24 4 -26 -11
-13 -20 16 -23 1 -5 -32 11 -22 12 -22 24 8 9 21 13 24 14 11 0 -10 9 -33 20
-52 26 -41 34 -91 28 -178 -2 -25 2 -41 10 -43 6 -3 12 3 12 12 0 9 5 13 10
10 8 -5 8 -11 1 -19 -6 -6 -10 -21 -9 -31 1 -36 -14 -149 -22 -165 -5 -9 -11
-49 -15 -90 -5 -48 -13 -79 -22 -87 -8 -6 -15 -28 -15 -48 0 -29 -5 -39 -24
-47 -13 -6 -24 -17 -24 -25 0 -7 -7 -16 -15 -19 -19 -8 -75 -59 -75 -69 0 -5
-9 -17 -20 -29 -54 -55 -90 -100 -90 -112 0 -8 -6 -14 -13 -14 -8 0 -21 -18
-30 -40 -9 -25 -22 -40 -32 -40 -12 0 -16 6 -12 20 7 27 -19 26 -33 -1 -10
-17 -14 -18 -28 -7 -14 11 -15 10 -8 -7 5 -11 12 -31 16 -45 5 -14 22 -53 39
-88 17 -34 31 -67 31 -72 0 -5 7 -13 16 -18 17 -9 12 -32 -7 -32 -13 0 -101
189 -135 291 -15 46 -31 89 -36 96 -10 12 0 63 12 63 13 0 48 67 55 104 9 47
-10 100 -46 131 -27 22 -117 56 -162 60 -9 1 -28 12 -42 25 -21 19 -25 21 -25
7 0 -9 -8 -17 -17 -17 -11 0 -14 -3 -7 -8 16 -10 25 -55 14 -72 -5 -8 -12 -11
-17 -7 -4 5 -1 12 7 17 12 7 12 12 3 21 -17 17 -24 8 -35 -48 -25 -126 -17
-151 44 -135 38 10 44 31 43 145 0 49 4 67 13 67 11 0 12 -33 6 -167 -4 -93
-3 -243 1 -335 l7 -168 39 6 c48 8 66 -5 80 -60 7 -27 18 -45 32 -51 24 -11
53 -80 58 -139 3 -31 -1 -41 -16 -50 -11 -6 -22 -12 -25 -14 -3 -2 -6 -49 -6
-104 -1 -91 -4 -103 -23 -117 -19 -15 -21 -22 -15 -78 8 -73 0 -88 -57 -103
l-39 -11 -2 -119 c-1 -66 -2 -132 -4 -147 -3 -47 -6 -146 -4 -178 1 -27 5 -23
35 39 19 37 39 73 43 80 5 6 12 24 16 39 4 16 22 62 41 104 19 41 35 78 35 83
0 4 7 13 15 20 8 7 15 21 15 31 0 11 10 36 23 57 24 38 59 109 63 127 2 6 17
44 34 85 17 41 36 88 43 105 7 16 27 58 45 94 17 36 32 71 32 79 0 8 9 26 20
41 10 16 27 50 36 77 16 49 62 154 90 207 9 15 13 27 10 27 -3 0 3 15 14 33
11 17 20 40 20 50 0 15 27 75 150 332 21 44 41 91 45 105 4 14 13 32 19 40 7
8 27 53 46 100 18 47 48 114 66 150 17 36 44 94 58 130 15 36 34 80 42 98 15
32 14 35 -10 65 -26 34 -98 115 -141 158 -14 14 -25 30 -25 34 0 4 -22 28 -50
53 -27 25 -50 54 -50 64 0 11 -4 17 -9 14 -12 -8 -34 21 -26 34 3 5 0 10 -8
10 -8 0 -27 17 -43 38 -16 20 -61 70 -100 109 -39 40 -87 94 -105 119 -19 26
-56 70 -84 99 -27 29 -91 99 -142 156 -50 57 -113 127 -139 154 -27 28 -70 77
-97 110 -62 78 -198 225 -207 225 -4 0 -14 -9 -21 -19z m63 -217 c5 -3 8 -12
8 -21 0 -8 8 -28 17 -44 17 -29 10 -56 -7 -29 -6 9 -10 10 -10 3 0 -6 5 -15
10 -18 22 -14 10 -32 -17 -27 -34 6 -60 34 -85 91 -15 35 -16 46 -6 53 12 8
73 2 90 -8z m380 -518 l37 -54 -14 -51 c-7 -27 -16 -77 -20 -111 -6 -53 -10
-62 -36 -75 -15 -8 -33 -15 -38 -15 -6 0 -35 -11 -65 -25 -53 -24 -76 -30 -76
-20 0 3 23 48 51 102 45 86 50 101 44 139 -5 34 -1 51 21 90 30 56 44 74 53
74 4 0 23 -24 43 -54z m564 -893 c-6 -48 -17 -107 -23 -123 -3 -8 -8 -33 -10
-55 -2 -22 -8 -56 -13 -75 -5 -19 -12 -66 -16 -103 -6 -66 -8 -70 -48 -99 -22
-16 -45 -36 -49 -44 -4 -8 -13 -14 -18 -14 -14 0 -39 -26 -39 -39 0 -6 -7 -11
-15 -11 -8 0 -15 -4 -15 -10 0 -5 -6 -10 -12 -11 -15 0 -96 -96 -138 -162 -39
-62 -71 -154 -79 -229 -1 -5 -6 -8 -12 -8 -22 0 -1 97 39 182 62 130 107 183
276 318 l81 65 11 75 c11 73 26 159 45 250 5 25 12 62 15 83 8 42 25 51 20 10z
m-904 -435 c-7 -7 -12 -8 -12 -2 0 14 12 26 19 19 2 -3 -1 -11 -7 -17z m-955
-10 c-3 -8 -6 -5 -6 6 -1 11 2 17 5 13 3 -3 4 -12 1 -19z"/>
<path d="M2876 3817 c-10 -27 -16 -51 -13 -54 8 -8 38 68 35 87 -2 8 -12 -7
-22 -33z"/>
<path d="M2896 3768 c-11 -18 -30 -46 -43 -61 -13 -16 -23 -36 -23 -45 0 -16
59 55 60 72 0 5 7 17 16 27 9 10 14 23 12 29 -2 6 -12 -4 -22 -22z"/>
<path d="M2540 4156 c0 -2 8 -10 18 -17 15 -13 16 -12 3 4 -13 16 -21 21 -21
13z"/>
<path d="M2583 4135 c3 -11 11 -48 17 -83 11 -64 7 -96 -15 -122 -7 -8 -20
-33 -29 -55 l-16 -40 20 25 c11 14 20 29 20 34 0 6 11 26 25 46 l25 37 -15 78
c-8 43 -20 84 -26 89 -8 8 -10 6 -6 -9z"/>
<path d="M3175 4070 c3 -5 8 -10 11 -10 2 0 4 5 4 10 0 6 -5 10 -11 10 -5 0
-7 -4 -4 -10z"/>
<path d="M2691 4004 c-6 -15 -9 -29 -7 -32 3 -2 10 8 16 23 14 36 7 43 -9 9z"/>
<path d="M2560 3967 c-13 -11 -54 -94 -67 -139 -11 -38 15 -15 31 27 10 24 28
60 42 80 13 20 24 38 24 40 0 9 -15 5 -30 -8z"/>
<path d="M2614 3913 c-20 -38 -43 -78 -50 -90 -16 -25 -19 -53 -5 -37 5 5 23
36 41 69 18 33 36 65 40 70 8 12 20 55 15 55 -2 0 -21 -30 -41 -67z"/>
<path d="M2502 3928 c-5 -7 -13 -24 -17 -37 -11 -35 11 -18 23 19 12 32 10 37
-6 18z"/>
<path d="M2737 3913 c-4 -3 -7 -11 -7 -17 0 -6 5 -5 12 2 6 6 9 14 7 17 -3 3
-9 2 -12 -2z"/>
<path d="M2236 3897 c3 -10 9 -15 12 -12 3 3 0 11 -7 18 -10 9 -11 8 -5 -6z"/>
<path d="M2450 3880 c0 -11 2 -20 4 -20 2 0 6 9 9 20 3 11 1 20 -4 20 -5 0 -9
-9 -9 -20z"/>
<path d="M2611 3824 c-12 -26 -20 -49 -17 -52 3 -3 15 16 27 42 27 62 19 69
-10 10z"/>
<path d="M2231 3834 c0 -11 3 -14 6 -6 3 7 2 16 -1 19 -3 4 -6 -2 -5 -13z"/>
<path d="M2132 3815 c-17 -38 -14 -43 8 -15 21 27 25 40 12 40 -5 0 -14 -11
-20 -25z"/>
<path d="M2181 3822 c-14 -26 -14 -42 -1 -42 11 0 25 48 17 56 -3 3 -10 -3
-16 -14z"/>
<path d="M2151 3764 c0 -11 3 -14 6 -6 3 7 2 16 -1 19 -3 4 -6 -2 -5 -13z"/>
<path d="M2210 3775 c0 -5 5 -17 10 -25 5 -8 10 -10 10 -5 0 6 -5 17 -10 25
-5 8 -10 11 -10 5z"/>
<path d="M1717 3722 c-10 -10 -17 -22 -17 -27 0 -5 9 1 21 14 12 12 19 24 17
27 -3 2 -12 -4 -21 -14z"/>
<path d="M2266 3720 c8 -29 44 -83 51 -77 2 3 -10 27 -27 53 -19 30 -29 39
-24 24z"/>
<path d="M2191 3703 c-1 -17 4 -35 9 -38 12 -7 12 22 0 50 -7 17 -9 15 -9 -12z"/>
<path d="M2410 3650 c-6 -12 -9 -24 -7 -27 3 -2 11 5 17 17 6 12 9 24 7 27 -3
2 -11 -5 -17 -17z"/>
<path d="M2176 3647 c3 -10 9 -15 12 -12 3 3 0 11 -7 18 -10 9 -11 8 -5 -6z"/>
<path d="M2190 3531 c0 -5 5 -13 10 -16 6 -3 10 -2 10 4 0 5 -4 13 -10 16 -5
3 -10 2 -10 -4z"/>
<path d="M2525 3503 c-21 -52 -75 -252 -75 -276 0 -25 3 -27 28 -24 21 3 26 9
25 26 -2 11 2 21 7 21 6 0 11 15 11 33 1 17 3 24 6 15 2 -10 9 -18 14 -18 14
0 11 -17 -11 -62 -11 -23 -18 -44 -15 -46 3 -3 11 11 20 31 20 48 35 56 35 18
0 -24 4 -31 19 -31 22 0 21 22 -5 170 -27 147 -42 184 -59 143z"/>
<path d="M1932 3460 c-12 -20 -12 -21 13 -4 28 18 31 24 12 24 -7 0 -18 -9
-25 -20z"/>
<path d="M3032 3455 c0 -16 2 -22 5 -12 2 9 2 23 0 30 -3 6 -5 -1 -5 -18z"/>
<path d="M3120 3443 c0 -13 5 -23 10 -23 13 0 13 11 0 30 -8 12 -10 11 -10 -7z"/>
<path d="M3031 3364 c0 -11 3 -14 6 -6 3 7 2 16 -1 19 -3 4 -6 -2 -5 -13z"/>
<path d="M3216 3335 c4 -8 11 -15 16 -15 6 0 5 6 -2 15 -7 8 -14 15 -16 15 -2
0 -1 -7 2 -15z"/>
<path d="M3220 3279 c0 -5 5 -7 10 -4 6 3 10 8 10 11 0 2 -4 4 -10 4 -5 0 -10
-5 -10 -11z"/>
<path d="M3046 3263 c-6 -14 -5 -15 5 -6 7 7 10 15 7 18 -3 3 -9 -2 -12 -12z"/>
<path d="M2972 3224 c-11 -12 -9 -14 8 -14 11 0 20 4 20 9 0 17 -15 19 -28 5z"/>
<path d="M3200 3190 c0 -5 5 -10 11 -10 5 0 7 5 4 10 -3 6 -8 10 -11 10 -2 0
-4 -4 -4 -10z"/>
<path d="M2014 3151 c20 -22 26 -25 26 -13 0 4 -10 13 -22 21 -23 14 -23 14
-4 -8z"/>
<path d="M2098 3163 c7 -3 16 -2 19 1 4 3 -2 6 -13 5 -11 0 -14 -3 -6 -6z"/>
<path d="M2590 3159 c0 -5 5 -7 10 -4 6 3 10 8 10 11 0 2 -4 4 -10 4 -5 0 -10
-5 -10 -11z"/>
<path d="M2681 3161 c-10 -6 -10 -10 -1 -16 13 -8 24 -1 19 14 -3 6 -10 7 -18
2z"/>
<path d="M2720 3156 c0 -9 5 -16 10 -16 6 0 10 4 10 9 0 6 -4 13 -10 16 -5 3
-10 -1 -10 -9z"/>
<path d="M2658 3107 c-21 -11 -37 -22 -35 -23 8 -8 77 21 77 33 0 7 -1 13 -2
12 -2 0 -20 -10 -40 -22z"/>
<path d="M2190 3100 c-20 -12 -10 -19 14 -10 11 3 15 9 10 13 -6 3 -16 2 -24
-3z"/>
<path d="M2940 3090 c-13 -8 -13 -10 2 -10 9 0 20 5 23 10 8 13 -5 13 -25 0z"/>
<path d="M1720 3074 c0 -8 5 -12 10 -9 6 3 10 10 10 16 0 5 -4 9 -10 9 -5 0
-10 -7 -10 -16z"/>
<path d="M2855 3060 c-3 -5 -1 -10 4 -10 6 0 11 5 11 10 0 6 -2 10 -4 10 -3 0
-8 -4 -11 -10z"/>
<path d="M1140 3050 c0 -5 5 -10 11 -10 5 0 7 5 4 10 -3 6 -8 10 -11 10 -2 0
-4 -4 -4 -10z"/>
<path d="M3210 3010 c0 -5 5 -10 10 -10 6 0 10 5 10 10 0 6 -4 10 -10 10 -5 0
-10 -4 -10 -10z"/>
<path d="M2375 2990 c-3 -6 1 -7 9 -4 18 7 21 14 7 14 -6 0 -13 -4 -16 -10z"/>
<path d="M1960 2955 c0 -8 5 -15 10 -15 6 0 10 7 10 15 0 8 -4 15 -10 15 -5 0
-10 -7 -10 -15z"/>
<path d="M2015 2959 c-9 -14 -2 -20 14 -10 8 6 9 11 3 15 -6 3 -14 1 -17 -5z"/>
<path d="M2239 2933 c-13 -15 -12 -15 11 -3 34 17 36 20 18 20 -9 0 -22 -7
-29 -17z"/>
<path d="M1706 2891 c-9 -14 -1 -170 9 -180 7 -7 10 26 10 89 0 92 -5 115 -19
91z"/>
<path d="M3310 2900 c-9 -38 -9 -89 -1 -95 6 -3 12 0 12 7 1 7 3 22 4 33 2 18
-12 68 -15 55z"/>
<path d="M1965 2850 c-3 -5 -2 -10 4 -10 5 0 13 5 16 10 3 6 2 10 -4 10 -5 0
-13 -4 -16 -10z"/>
<path d="M3217 2847 c-20 -52 4 -70 32 -25 11 18 11 20 -2 15 -10 -4 -17 0
-19 11 -3 15 -4 15 -11 -1z"/>
<path d="M2000 2810 c-9 -6 -10 -10 -3 -10 6 0 15 5 18 10 8 12 4 12 -15 0z"/>
<path d="M2318 2803 c7 -3 16 -2 19 1 4 3 -2 6 -13 5 -11 0 -14 -3 -6 -6z"/>
<path d="M1937 2793 c-3 -5 -1 -17 4 -28 6 -16 8 -17 8 -3 1 9 9 22 19 27 15
9 15 10 -5 11 -12 0 -24 -3 -26 -7z"/>
<path d="M1875 2770 c-3 -5 -1 -10 4 -10 6 0 11 5 11 10 0 6 -2 10 -4 10 -3 0
-8 -4 -11 -10z"/>
<path d="M3160 2750 c0 -5 5 -10 10 -10 6 0 10 5 10 10 0 6 -4 10 -10 10 -5 0
-10 -4 -10 -10z"/>
<path d="M2390 2735 c-8 -9 -8 -15 -2 -15 12 0 26 19 19 26 -2 2 -10 -2 -17
-11z"/>
<path d="M2755 2720 c4 -6 11 -8 16 -5 14 9 11 15 -7 15 -8 0 -12 -5 -9 -10z"/>
<path d="M2209 2659 l-24 -20 28 17 c15 9 27 18 27 20 0 8 -8 4 -31 -17z"/>
<path d="M3058 2675 c-11 -18 -37 -85 -33 -85 9 0 46 71 43 82 -3 7 -7 8 -10
3z"/>
<path d="M3106 2638 l-19 -33 23 21 c12 12 21 27 19 33 -3 7 -13 -3 -23 -21z"/>
<path d="M1785 2640 c3 -5 11 -10 16 -10 6 0 7 5 4 10 -3 6 -11 10 -16 10 -6
0 -7 -4 -4 -10z"/>
<path d="M1741 2609 c7 -14 14 -18 21 -11 13 13 2 32 -18 32 -12 0 -13 -4 -3
-21z"/>
<path d="M3250 2600 c-22 -31 -17 -39 10 -17 14 11 26 47 16 47 -2 0 -14 -13
-26 -30z"/>
<path d="M2090 2609 c0 -5 5 -7 10 -4 6 3 10 8 10 11 0 2 -4 4 -10 4 -5 0 -10
-5 -10 -11z"/>
<path d="M2165 2589 c-4 -6 -5 -12 -2 -15 2 -3 7 2 10 11 7 17 1 20 -8 4z"/>
<path d="M1786 2548 c16 -18 30 -35 32 -37 1 -2 5 -1 9 2 8 8 -46 67 -61 67
-5 0 3 -15 20 -32z"/>
<path d="M1846 2562 c-3 -6 1 -13 10 -16 23 -9 28 -2 10 13 -8 7 -17 8 -20 3z"/>
<path d="M3034 2546 c-10 -8 -16 -17 -13 -20 3 -3 14 3 24 14 21 23 17 26 -11
6z"/>
<path d="M3170 2549 c0 -5 5 -7 10 -4 6 3 10 8 10 11 0 2 -4 4 -10 4 -5 0 -10
-5 -10 -11z"/>
<path d="M1961 2518 c5 -18 9 -34 9 -34 0 -1 16 -22 37 -46 41 -49 41 -48 -6
45 -36 71 -56 88 -40 35z"/>
<path d="M1880 2515 c0 -8 4 -15 10 -15 5 0 7 7 4 15 -4 8 -8 15 -10 15 -2 0
-4 -7 -4 -15z"/>
<path d="M3110 2499 c0 -5 5 -7 10 -4 6 3 10 8 10 11 0 2 -4 4 -10 4 -5 0 -10
-5 -10 -11z"/>
<path d="M1840 2490 c0 -5 5 -10 11 -10 5 0 7 5 4 10 -3 6 -8 10 -11 10 -2 0
-4 -4 -4 -10z"/>
<path d="M2991 2486 c-7 -8 -11 -37 -9 -68 l3 -53 16 68 c16 66 13 81 -10 53z"/>
<path d="M2480 2479 c0 -5 5 -7 10 -4 6 3 10 8 10 11 0 2 -4 4 -10 4 -5 0 -10
-5 -10 -11z"/>
<path d="M3036 2451 c-4 -7 -5 -15 -2 -18 9 -9 19 4 14 18 -4 11 -6 11 -12 0z"/>
<path d="M1945 2430 c3 -5 11 -10 16 -10 6 0 7 5 4 10 -3 6 -11 10 -16 10 -6
0 -7 -4 -4 -10z"/>
<path d="M2590 2423 c-36 -7 -50 -22 -50 -53 0 -24 6 -30 37 -41 l37 -12 -41
-20 c-30 -15 -40 -26 -40 -44 0 -19 2 -21 13 -12 10 8 14 8 14 0 0 -6 11 -13
25 -17 14 -3 25 -9 25 -13 0 -4 -11 -14 -25 -21 -16 -8 -25 -22 -25 -37 0 -24
17 -29 55 -14 19 7 20 18 20 150 1 92 -3 141 -10 140 -5 -1 -21 -4 -35 -6z"/>
<path d="M3067 2373 c-12 -12 -7 -22 8 -17 8 4 15 10 15 15 0 11 -14 12 -23 2z"/>
<path d="M2206 2334 c-6 -24 -2 -43 8 -33 11 10 17 59 8 59 -5 0 -13 -12 -16
-26z"/>
<path d="M2851 2334 c0 -11 3 -14 6 -6 3 7 2 16 -1 19 -3 4 -6 -2 -5 -13z"/>
<path d="M2907 2303 c-2 -5 -1 -19 4 -33 7 -23 7 -23 8 8 1 31 -3 40 -12 25z"/>
<path d="M2870 2236 c0 -8 4 -17 9 -20 5 -4 7 3 4 14 -6 23 -13 26 -13 6z"/>
<path d="M3364 2153 c-14 -32 -36 -80 -49 -108 -32 -66 -145 -324 -145 -330 0
-2 -17 -41 -39 -87 -65 -140 -79 -173 -87 -203 -8 -35 -80 -210 -99 -239 -7
-12 -21 -46 -30 -76 -10 -30 -24 -62 -31 -71 -8 -8 -14 -20 -14 -25 0 -6 -13
-30 -28 -55 -16 -24 -36 -64 -45 -89 -30 -85 -114 -285 -151 -362 -42 -88 -60
-97 -90 -45 -93 156 -126 224 -121 247 4 16 2 20 -3 12 -12 -17 -16 -11 -81
118 -29 58 -59 112 -65 120 -7 8 -26 42 -43 75 -17 33 -45 86 -62 119 -17 32
-31 67 -31 77 0 10 -4 19 -10 19 -5 0 -10 7 -10 15 0 17 -35 85 -48 94 -4 3
-20 31 -35 61 -15 30 -39 75 -53 100 -15 25 -41 70 -58 102 -17 31 -47 82 -66
115 -77 129 -103 180 -96 192 3 4 -1 8 -9 8 -8 0 -15 -3 -15 -7 0 -4 23 -49
50 -101 28 -52 60 -114 72 -139 12 -25 50 -104 85 -177 35 -72 63 -136 63
-143 0 -6 27 -62 59 -125 33 -63 58 -115 56 -115 -3 0 11 -26 30 -57 19 -32
35 -62 35 -66 0 -8 147 -312 237 -492 25 -49 70 -139 100 -198 29 -59 58 -105
62 -103 5 3 19 34 31 68 13 35 29 70 35 78 7 8 22 42 33 75 11 33 51 134 87
225 37 91 87 215 111 275 24 61 55 131 69 156 14 26 25 55 25 66 0 10 5 24 12
31 6 6 13 18 14 25 1 7 11 34 23 59 11 26 21 51 21 57 0 5 4 11 9 13 5 2 30
66 56 143 26 77 55 154 66 171 10 17 19 39 19 48 0 9 9 34 20 54 33 63 49 103
56 138 3 19 10 34 15 34 5 0 9 8 9 17 0 23 32 106 44 115 5 3 10 14 11 25 1
10 5 25 8 33 11 29 25 90 21 90 -3 0 -16 -26 -30 -57z"/>
<path d="M2502 2153 c2 -10 12 -18 23 -18 11 0 21 8 23 18 3 13 -3 17 -23 17
-20 0 -26 -4 -23 -17z"/>
<path d="M2605 2113 c-11 -3 -30 -14 -42 -26 -13 -12 -23 -15 -23 -8 0 8 -5 9
-19 2 -10 -6 -22 -7 -27 -3 -5 4 -2 -1 5 -10 7 -10 10 -18 5 -18 -4 0 -3 -5 4
-12 9 -9 15 -9 23 -1 7 7 17 7 35 -1 26 -12 33 -46 9 -46 -8 0 -15 -4 -15 -10
0 -5 -11 -10 -24 -10 -31 0 -38 -10 -21 -34 14 -19 31 -17 93 11 27 13 32 21
32 48 0 29 -3 33 -22 29 l-23 -5 23 17 c15 11 22 27 22 50 0 19 -3 33 -7 33
-5 -1 -17 -3 -28 -6z"/>
<path d="M2675 1949 c-26 -17 -65 -37 -86 -46 l-39 -15 17 -29 c26 -43 62 -52
115 -27 94 44 89 39 83 72 -16 81 -26 85 -90 45z"/>
<path d="M2460 1949 c0 -11 5 -17 10 -14 6 3 10 13 10 21 0 8 -4 14 -10 14 -5
0 -10 -9 -10 -21z"/>
<path d="M2445 1879 c-16 -11 -63 -38 -102 -60 l-73 -41 0 -101 c0 -56 4 -118
10 -137 12 -44 19 -79 30 -157 18 -113 36 -131 120 -115 29 5 44 13 42 22 -2
7 -4 98 -6 203 -3 184 -4 191 -26 207 -39 29 -15 41 37 18 25 -11 72 -23 104
-25 55 -5 59 -4 68 18 11 30 7 36 -33 53 -34 14 -69 52 -98 105 -20 36 -31 37
-73 10z"/>
<path d="M2744 1829 l-59 -31 -1 -59 c0 -33 -5 -64 -11 -70 -7 -7 -39 -11 -73
-10 -59 1 -61 0 -55 -21 4 -13 11 -27 15 -31 9 -11 118 26 210 72 74 36 75 37
72 71 -5 49 -21 110 -30 110 -5 0 -35 -14 -68 -31z"/>
<path d="M2737 1626 c-9 -7 -51 -24 -92 -37 -82 -26 -83 -27 -68 -113 l6 -38
59 6 c32 4 77 15 100 26 l42 19 1 75 c0 81 -8 92 -48 62z"/>
<path d="M2673 1417 c-64 -21 -73 -34 -73 -103 0 -28 26 -31 105 -10 48 13 50
15 53 51 4 42 -4 85 -16 84 -4 0 -35 -10 -69 -22z"/>
</g>
</svg>
