<?xml version="1.0" standalone="no"?>
<!DOCTYPE svg PUBLIC "-//W3C//DTD SVG 20010904//EN"
 "http://www.w3.org/TR/2001/REC-SVG-20010904/DTD/svg10.dtd">
<svg version="1.0" xmlns="http://www.w3.org/2000/svg"
 width="512.000000pt" height="512.000000pt" viewBox="0 0 512.000000 512.000000"
 preserveAspectRatio="xMidYMid meet">

<g transform="translate(0.000000,512.000000) scale(0.100000,-0.100000)"
fill="#000000" stroke="none">
<path d="M0 2560 l0 -2560 2560 0 2560 0 0 2560 0 2560 -2560 0 -2560 0 0
-2560z m2550 1889 c0 -6 20 -35 45 -63 25 -29 45 -57 45 -62 0 -8 88 -126 123
-164 19 -21 97 -128 97 -133 0 -3 16 -22 36 -43 20 -22 46 -53 58 -70 11 -17
50 -74 85 -125 35 -52 85 -121 110 -154 56 -73 65 -86 183 -248 51 -70 126
-171 165 -225 74 -98 81 -112 62 -112 -5 0 -7 -4 -4 -10 7 -12 -31 -101 -48
-112 -9 -6 -9 -8 0 -8 12 0 -16 -71 -153 -387 -8 -17 -36 -89 -63 -160 -26
-70 -58 -153 -71 -183 -12 -30 -28 -71 -35 -90 -81 -212 -98 -255 -106 -269
-5 -9 -37 -90 -70 -181 -34 -91 -70 -182 -80 -202 -10 -20 -30 -72 -45 -115
-14 -43 -36 -100 -49 -128 -26 -56 -58 -140 -76 -200 -13 -44 -39 -111 -76
-192 -13 -28 -23 -55 -23 -59 0 -15 -53 -124 -61 -124 -12 0 -95 144 -116 200
-9 25 -27 61 -38 80 -12 19 -38 70 -58 112 -20 42 -82 170 -137 283 -55 114
-100 209 -100 212 0 2 -13 33 -29 68 -17 35 -41 88 -54 117 -14 29 -46 97 -71
151 -25 55 -46 105 -46 112 0 7 -4 15 -8 17 -10 4 -244 451 -290 553 -12 28
-38 79 -58 115 -20 36 -63 116 -96 178 l-60 113 17 35 c9 20 39 60 66 90 27
30 49 58 49 63 0 5 6 16 13 23 7 7 22 27 32 44 20 33 103 151 117 169 12 15
111 151 159 220 47 67 151 207 159 215 3 3 41 59 85 125 44 66 87 129 97 139
10 11 18 23 18 27 0 5 8 16 18 26 33 32 232 319 232 334 0 5 11 9 25 9 14 0
25 -5 25 -11z"/>
<path d="M2488 4313 c-19 -27 -66 -92 -104 -147 -38 -54 -86 -121 -107 -150
-45 -61 -57 -78 -169 -237 -48 -68 -96 -136 -107 -151 -30 -38 -26 -49 5 -13
14 17 51 59 82 94 31 36 75 85 97 110 23 25 61 73 85 106 25 33 68 87 96 120
28 33 70 86 93 118 23 31 49 57 59 57 20 0 285 -272 408 -420 42 -50 79 -87
69 -70 -14 24 -73 113 -94 140 -10 14 -44 59 -74 100 -31 41 -84 112 -119 156
-35 45 -89 116 -121 158 -32 42 -60 76 -62 76 -2 0 -19 -21 -37 -47z"/>
<path d="M2495 4126 c-80 -99 -140 -172 -145 -176 -3 -3 -59 -68 -124 -145
-65 -77 -131 -152 -145 -166 -30 -29 -69 -76 -208 -249 -55 -69 -160 -192
-232 -275 -72 -82 -131 -156 -131 -164 0 -7 18 -46 39 -85 21 -39 63 -118 93
-176 30 -58 75 -139 100 -180 25 -41 71 -124 103 -185 60 -114 110 -204 162
-290 45 -75 248 -434 271 -480 24 -49 140 -264 153 -285 5 -8 19 -34 30 -57
36 -78 43 -66 35 63 -4 65 -8 146 -9 179 l-2 60 -62 8 c-70 10 -68 7 -93 136
-5 29 -12 56 -15 61 -2 4 -7 48 -10 96 -4 49 -8 103 -10 121 -4 31 -2 33 76
69 l79 37 1 66 c2 65 2 299 0 439 -1 52 -5 74 -15 78 -25 10 -99 -17 -129 -47
-27 -28 -29 -34 -24 -79 3 -27 13 -63 22 -79 16 -32 12 -67 -19 -171 -8 -25
-21 -71 -31 -102 -9 -32 -20 -58 -24 -58 -4 0 -31 34 -60 75 -29 41 -100 119
-157 175 -56 55 -101 100 -99 100 30 0 229 -189 278 -264 l26 -39 11 29 c23
59 49 148 45 153 -3 2 -5 0 -5 -6 0 -5 -11 -23 -24 -38 l-25 -28 -33 25 c-46
36 -74 64 -143 143 -33 38 -77 87 -97 108 -62 64 -78 109 -84 238 -4 85 -1
128 10 169 37 136 44 157 55 177 6 12 11 31 11 42 0 11 12 34 27 52 15 18 21
29 13 26 -8 -3 -32 -11 -54 -18 -21 -7 -39 -18 -41 -23 -2 -6 -11 -45 -20 -86
-10 -41 -29 -100 -44 -130 -25 -51 -27 -60 -19 -135 4 -44 12 -100 17 -125 18
-78 24 -140 14 -140 -12 0 -38 121 -54 251 -12 95 -12 97 13 141 21 39 57 152
73 229 3 19 13 29 32 34 16 3 68 23 117 42 98 40 111 38 132 -14 11 -26 10
-36 -10 -80 -22 -46 -22 -51 -7 -70 26 -33 102 -56 158 -49 108 15 141 42 110
89 -8 12 -47 55 -86 96 -76 79 -75 77 -116 274 -2 9 4 24 12 33 13 13 18 13
25 2 8 -10 9 -9 5 4 -3 9 1 22 9 29 34 28 59 77 65 124 4 37 7 45 13 30 4 -11
13 -33 20 -50 10 -23 11 -45 3 -90 -10 -61 -10 -61 27 -113 21 -29 40 -52 43
-52 2 0 2 4 -1 8 -4 7 5 67 21 132 l6 25 7 -25 c8 -23 8 -23 9 8 1 32 14 43
25 20 3 -7 4 -4 3 6 -1 12 7 25 21 32 13 6 29 17 35 23 18 18 31 13 16 -6 -18
-22 -49 -89 -49 -106 0 -7 15 16 34 49 28 53 32 69 28 115 -4 54 -18 78 -56
92 -13 5 -16 11 -9 18 12 12 93 -8 93 -23 0 -4 6 -8 14 -8 8 0 18 -10 22 -22
7 -22 7 -22 30 5 13 15 25 27 28 27 9 0 36 -103 36 -139 0 -20 -9 -49 -19 -65
-16 -24 -18 -41 -14 -101 5 -64 3 -79 -21 -130 -30 -67 -31 -83 -11 -153 15
-48 14 -55 -5 -109 -11 -31 -20 -59 -20 -60 0 -2 24 -1 53 3 50 6 91 23 184
75 45 26 48 39 17 101 -8 15 -14 33 -14 40 1 19 38 60 49 54 5 -4 11 -1 13 6
3 9 13 6 31 -9 15 -11 63 -35 108 -53 75 -30 123 -70 105 -87 -3 -3 -6 -1 -6
5 0 11 -121 72 -143 72 -6 0 11 -21 37 -47 26 -25 49 -54 51 -65 2 -10 6 -22
9 -27 4 -5 -3 -7 -14 -4 -15 4 -19 2 -14 -10 3 -9 12 -13 19 -11 24 10 48 -55
48 -129 0 -49 3 -67 12 -63 15 6 11 -72 -10 -166 -8 -37 -15 -81 -15 -97 0
-17 -4 -31 -10 -31 -5 0 -10 -12 -10 -26 0 -18 -17 -43 -57 -83 -90 -89 -152
-163 -176 -210 -11 -21 -36 -28 -29 -8 1 4 -5 7 -13 7 -8 0 -15 -5 -15 -11 0
-6 -7 -8 -16 -5 -20 8 -13 -17 29 -99 l30 -60 12 45 c16 61 60 145 104 201 35
44 68 74 175 162 25 21 45 41 42 45 -4 8 23 184 30 191 10 11 12 -7 4 -44 -4
-22 -11 -71 -15 -108 -6 -64 -9 -69 -43 -91 -47 -30 -160 -139 -199 -191 -35
-48 -65 -119 -83 -197 -7 -32 -17 -58 -22 -58 -10 0 -98 178 -98 198 0 7 -4
20 -9 30 -5 9 -16 35 -25 56 -17 39 -17 39 12 80 38 54 46 88 28 130 -15 36
-63 67 -122 80 -30 7 -32 5 -38 -29 -8 -41 -7 -429 1 -462 4 -18 12 -23 37
-23 36 0 56 -15 56 -42 0 -10 11 -28 25 -40 42 -37 60 -138 28 -157 -15 -8
-18 -24 -19 -86 0 -60 -4 -80 -17 -89 -12 -10 -16 -27 -14 -72 l2 -59 -35 -11
-35 -12 -7 -168 c-4 -93 -7 -175 -5 -183 2 -13 77 127 77 144 0 7 25 62 92
205 48 101 58 123 108 240 42 100 59 139 77 175 8 17 37 84 65 150 27 66 54
124 59 129 5 6 9 19 9 29 0 10 7 31 15 45 29 54 195 417 195 428 0 4 14 34 31
68 42 82 99 217 99 235 0 16 -137 180 -187 224 -18 16 -33 33 -33 37 0 10 -43
60 -152 177 -43 46 -85 94 -93 107 -9 13 -37 47 -63 74 -57 61 -230 253 -344
381 -46 52 -88 96 -94 98 -5 2 -19 -8 -29 -21z m50 -154 c22 -15 46 -90 25
-77 -6 3 -7 -1 -4 -9 5 -12 0 -16 -19 -16 -28 0 -54 33 -64 80 -5 28 -3 30 23
30 16 0 34 -4 39 -8z m306 -405 l26 -43 -17 -90 -16 -89 -77 -31 c-42 -18 -77
-28 -77 -22 0 6 16 43 36 84 26 51 35 81 31 101 -6 33 40 133 62 133 3 0 18
-19 32 -43z m368 -434 c20 -44 61 -174 61 -192 -1 -24 -29 29 -30 55 0 12 -13
51 -30 87 -33 73 -34 77 -22 77 5 0 14 -12 21 -27z m66 -302 c-4 -28 -10 -49
-15 -46 -4 2 -3 27 3 55 12 64 21 58 12 -9z"/>
<path d="M2811 3552 c-6 -12 -11 -27 -11 -34 1 -7 8 0 16 15 9 16 13 31 11 34
-3 2 -10 -4 -16 -15z"/>
<path d="M2810 3482 c-37 -55 -41 -62 -36 -62 7 0 69 91 64 95 -2 2 -14 -13
-28 -33z"/>
<path d="M2592 3740 c0 -14 2 -19 5 -12 2 6 2 18 0 25 -3 6 -5 1 -5 -13z"/>
<path d="M2622 3700 c0 -14 2 -19 5 -12 2 6 2 18 0 25 -3 6 -5 1 -5 -13z"/>
<path d="M2596 3665 c-9 -26 -7 -32 5 -12 6 10 9 21 6 23 -2 3 -7 -2 -11 -11z"/>
<path d="M2606 3618 l-18 -33 21 25 c18 22 26 40 18 40 -1 0 -11 -15 -21 -32z"/>
<path d="M2507 3623 c-4 -3 -7 -13 -7 -22 1 -13 3 -13 11 2 11 19 8 33 -4 20z"/>
<path d="M2566 3603 c-6 -14 -5 -15 5 -6 7 7 10 15 7 18 -3 3 -9 -2 -12 -12z"/>
<path d="M2565 3551 c-8 -17 -12 -31 -7 -31 10 0 35 50 28 57 -2 3 -12 -9 -21
-26z"/>
<path d="M2605 3559 c-4 -6 -5 -12 -2 -15 2 -3 7 2 10 11 7 17 1 20 -8 4z"/>
<path d="M2267 3554 c-4 -4 -7 -14 -7 -23 0 -11 3 -12 11 -4 6 6 10 16 7 23
-2 6 -7 8 -11 4z"/>
<path d="M2330 3463 c0 -5 10 -19 21 -33 l20 -25 -16 33 c-15 30 -25 41 -25
25z"/>
<path d="M2532 3290 c-14 -36 -49 -158 -57 -198 -6 -31 -5 -33 16 -30 16 2 25
12 31 36 5 19 13 30 19 26 6 -3 8 -15 6 -26 -4 -16 -3 -17 9 -7 11 9 14 7 14
-15 0 -14 5 -26 10 -26 15 0 12 62 -6 154 -21 103 -29 120 -42 86z"/>
<path d="M2680 3019 c0 -5 5 -7 10 -4 6 3 10 8 10 11 0 2 -4 4 -10 4 -5 0 -10
-5 -10 -11z"/>
<path d="M1890 2809 c0 -5 5 -7 10 -4 6 3 10 8 10 11 0 2 -4 4 -10 4 -5 0 -10
-5 -10 -11z"/>
<path d="M3147 2813 c-11 -10 -8 -53 3 -53 6 0 10 14 10 30 0 31 -2 35 -13 23z"/>
<path d="M3070 2759 c0 -18 2 -19 15 -9 15 12 12 30 -6 30 -5 0 -9 -10 -9 -21z"/>
<path d="M1892 2730 c0 -14 2 -19 5 -12 2 6 2 18 0 25 -3 6 -5 1 -5 -13z"/>
<path d="M2075 2740 c-3 -5 -1 -10 4 -10 6 0 11 5 11 10 0 6 -2 10 -4 10 -3 0
-8 -4 -11 -10z"/>
<path d="M2597 2664 c-4 -4 -7 -15 -7 -25 0 -9 -6 -19 -13 -22 -17 -6 -37
-120 -25 -141 6 -11 14 -12 38 -3 24 9 30 18 35 52 12 75 -6 161 -28 139z"/>
<path d="M2945 2639 c-4 -6 -5 -12 -2 -15 2 -3 7 2 10 11 7 17 1 20 -8 4z"/>
<path d="M1920 2600 c0 -5 5 -10 10 -10 6 0 10 5 10 10 0 6 -4 10 -10 10 -5 0
-10 -4 -10 -10z"/>
<path d="M3106 2601 c-4 -7 -5 -15 -2 -18 9 -9 19 4 14 18 -4 11 -6 11 -12 0z"/>
<path d="M1940 2572 c0 -5 10 -17 22 -28 l21 -19 -18 28 c-18 28 -25 33 -25
19z"/>
<path d="M2090 2542 c0 -17 30 -75 36 -69 3 3 -4 22 -15 44 -11 21 -20 32 -21
25z"/>
<path d="M2898 2504 c-5 -4 -8 -21 -8 -38 1 -26 2 -28 11 -13 11 19 8 63 -3
51z"/>
<path d="M2582 2453 c-50 -10 -49 -68 1 -75 20 -3 19 -5 -10 -23 -28 -17 -47
-49 -25 -43 4 1 17 -4 28 -12 l22 -13 -21 -17 c-28 -23 -17 -53 15 -41 22 8
23 14 26 120 1 61 -1 110 -5 110 -4 -1 -18 -4 -31 -6z"/>
<path d="M2955 2410 c-3 -5 -1 -10 4 -10 6 0 11 5 11 10 0 6 -2 10 -4 10 -3 0
-8 -4 -11 -10z"/>
<path d="M2286 2385 c-3 -9 -6 -22 -5 -28 0 -7 5 -1 10 12 5 13 8 26 5 28 -2
2 -6 -3 -10 -12z"/>
<path d="M3171 2204 c-17 -36 -31 -68 -31 -71 0 -2 -20 -47 -45 -100 -25 -52
-45 -97 -45 -100 0 -3 -27 -65 -60 -139 -33 -73 -60 -139 -60 -145 0 -16 -92
-226 -136 -313 -20 -39 -62 -133 -94 -210 -85 -206 -94 -225 -107 -230 -19 -8
-56 51 -158 249 -37 72 -75 141 -84 155 -10 14 -43 79 -75 145 -70 143 -58
121 -169 320 -82 148 -152 253 -93 140 14 -27 26 -54 26 -59 0 -4 21 -52 46
-105 289 -601 493 -1011 504 -1011 6 0 10 4 10 10 0 5 11 33 25 62 13 29 49
116 79 193 30 77 80 201 111 275 31 74 70 167 85 205 15 39 39 95 53 125 14
30 35 84 47 120 11 36 32 89 46 118 13 29 24 58 24 65 0 7 4 17 10 23 5 5 23
49 40 97 17 48 39 107 49 130 24 54 42 109 37 114 -2 2 -18 -26 -35 -63z"/>
<path d="M2520 2243 c0 -7 7 -13 15 -13 8 0 15 6 15 13 0 8 -7 14 -15 14 -8 0
-15 -6 -15 -14z"/>
<path d="M2577 2200 c-14 -11 -29 -20 -34 -19 -22 4 -32 -2 -26 -17 3 -8 12
-13 20 -10 8 3 21 0 29 -8 16 -16 19 -40 4 -31 -5 3 -10 1 -10 -4 0 -6 -9 -11
-20 -11 -21 0 -25 -7 -12 -28 9 -13 26 -10 70 11 23 11 32 57 10 57 -9 0 -9 3
0 12 14 14 16 68 3 68 -4 0 -20 -9 -34 -20z"/>
<path d="M2640 2078 c-82 -49 -81 -48 -70 -68 17 -31 48 -34 101 -9 37 17 49
28 49 45 0 58 -22 66 -80 32z"/>
<path d="M1930 2065 c0 -5 5 -17 10 -25 5 -8 10 -10 10 -5 0 6 -5 17 -10 25
-5 8 -10 11 -10 5z"/>
<path d="M2413 1994 c-53 -33 -73 -51 -74 -67 -3 -92 3 -161 20 -246 29 -137
25 -131 83 -131 l49 0 -4 160 c-3 141 -6 162 -22 174 -35 26 -7 34 51 14 71
-24 108 -21 112 10 2 14 -2 22 -11 22 -18 0 -76 58 -88 88 -12 31 -34 27 -116
-24z"/>
<path d="M1966 1997 c3 -10 9 -15 12 -12 3 3 0 11 -7 18 -10 9 -11 8 -5 -6z"/>
<path d="M2705 1987 c-48 -21 -50 -23 -47 -59 2 -20 -2 -47 -8 -59 -10 -18
-18 -21 -56 -16 -37 4 -44 2 -44 -13 0 -9 3 -19 6 -22 9 -9 72 11 153 48 l74
34 -6 46 c-2 25 -9 50 -13 54 -5 5 -31 -1 -59 -13z"/>
<path d="M2643 1808 c-66 -28 -73 -33 -73 -58 0 -49 9 -60 51 -60 21 0 54 7
73 16 28 14 35 23 38 53 4 44 -1 81 -10 80 -4 -1 -40 -15 -79 -31z"/>
<path d="M2643 1663 c-36 -12 -43 -20 -49 -49 -3 -19 -4 -38 -1 -41 9 -9 92 6
112 21 14 10 16 21 11 49 -8 41 -12 42 -73 20z"/>
</g>
</svg>
